<svg xmlns="http://www.w3.org/2000/svg" width="48" height="48" viewBox="0 0 48 48">
    <path fill="#A2A4AA" fill-rule="evenodd" d="M40.485 10a2.618 2.618 0 0 1 2.615 2.616v10.187a2.619 2.619 0 0 1-2.615 2.616H7.115A2.619 2.619 0 0 1 4.5 22.803V12.616A2.618 2.618 0 0 1 7.116 10h33.369zm0 14.009c.597 0 1.09-.438 1.186-1.008H31.435v1.008h9.05zM5.93 23c.095.57.588 1.008 1.186 1.008h9.05V23H5.93zM7.116 11.41c-.665 0-1.206.54-1.206 1.206V19.4h35.78v-6.784c0-.665-.54-1.206-1.205-1.206H7.115zM5.91 21.59h10.256v-.781H5.91v.782zm11.665 2.419h12.45V23h-12.45v1.008zm0-2.418h12.45v-.782h-12.45v.782zm13.86 0H41.69v-.782H31.435v.782zm3.126-3.168a.704.704 0 0 1-.704-.703v-2.248c0-.39.315-.705.704-.705h5.244c.389 0 .704.316.704.705v2.248a.704.704 0 0 1-.704.704h-5.244zm.705-1.408H39.1v-.838h-3.834v.838zm-7.162 11.509a4.31 4.31 0 0 1-4.304 4.304 4.308 4.308 0 0 1-4.303-4.304.705.705 0 1 1 1.409 0 2.898 2.898 0 0 0 2.894 2.894 2.897 2.897 0 0 0 2.894-2.894.705.705 0 0 1 1.41 0zm-10.797 0a6.5 6.5 0 0 0 6.493 6.493 6.5 6.5 0 0 0 6.492-6.493.705.705 0 0 1 1.41 0c0 4.357-3.545 7.902-7.902 7.902-4.358 0-7.903-3.545-7.903-7.902a.705.705 0 0 1 1.41 0zm17.193-.705c.389 0 .705.316.705.705 0 6.288-5.116 11.404-11.405 11.404-6.288 0-11.404-5.116-11.404-11.404a.705.705 0 1 1 1.409 0c0 5.511 4.484 9.995 9.995 9.995 5.512 0 9.995-4.484 9.995-9.995 0-.389.316-.705.705-.705z"/>
</svg>
