<svg xmlns="http://www.w3.org/2000/svg" width="48" height="48" viewBox="0 0 48 48">
    <path fill="#A2A4AA" fill-rule="evenodd" d="M14.448 12.028v1.826a.705.705 0 0 1-1.41 0v-1.826a.705.705 0 0 1 1.41 0zm2.365 0v4.997a.705.705 0 1 1-1.41 0v-4.997a.705.705 0 0 1 1.41 0zm2.365 0v3.236a.705.705 0 0 1-1.41 0v-3.236a.705.705 0 0 1 1.41 0zm-5.434 3.154c.389 0 .705.316.705.705v4.997a.705.705 0 0 1-1.41 0v-4.997c0-.389.316-.705.705-.705zm2.364 3.172c.39 0 .705.316.705.705v1.826a.705.705 0 0 1-1.41 0v-1.826c0-.39.316-.705.705-.705zm2.365-1.762c.389 0 .705.316.705.705v3.588a.705.705 0 0 1-1.41 0v-3.588c0-.39.316-.705.705-.705zm21.983 5.758c1.171 0 2.123.952 2.123 2.123a2.126 2.126 0 0 1-1.695 2.079l-3.31 9.783a6.105 6.105 0 0 1-5.088 4.105 3.069 3.069 0 0 1-3.063 2.962 3.07 3.07 0 0 1-3.06-2.918h-5.24a3.07 3.07 0 0 1-3.06 2.918A3.068 3.068 0 0 1 15 40.44a6.1 6.1 0 0 1-5.086-4.106l-3.32-9.808A2.124 2.124 0 0 1 5 24.473c0-1.171.952-2.123 2.122-2.123H8.85V9.51c0-2.21 1.8-4.01 4.011-4.01 2 0 3.658 1.473 3.958 3.39h2.906c.456 0 .825.37.825.826v.187a.825.825 0 0 1-.825.825h-7.029a.825.825 0 0 1-.826-.825v-.187c0-.456.37-.826.826-.826h2.69a2.604 2.604 0 0 0-2.525-1.98 2.604 2.604 0 0 0-2.6 2.6v12.84h30.196zm0 2.836a.714.714 0 0 0 0-1.426H7.122a.713.713 0 0 0 0 1.426h33.334zm-4.219 10.696l3.144-9.286H8.105l3.144 9.286a4.696 4.696 0 0 0 4.45 3.193h16.088a4.696 4.696 0 0 0 4.45-3.193zm-6.814 6.11c.864 0 1.576-.663 1.652-1.508h-3.303a1.66 1.66 0 0 0 1.651 1.509zm-11.36 0c.863 0 1.575-.663 1.651-1.508h-3.303a1.66 1.66 0 0 0 1.651 1.509z"/>
</svg>
