<svg xmlns="http://www.w3.org/2000/svg" width="48" height="48" viewBox="0 0 48 48">
    <path fill="#A2A4AA" fill-rule="evenodd" d="M38.416 20.67a4.995 4.995 0 0 1 4.752 4.98v8.737a.705.705 0 0 1-.705.705h-1.616v3.87a.705.705 0 0 1-.705.706h-2.797a.705.705 0 0 1-.705-.705v-3.871H11.028v3.87a.705.705 0 0 1-.705.706H7.526a.705.705 0 0 1-.705-.705v-3.871H5.205a.705.705 0 0 1-.705-.705V25.65a4.995 4.995 0 0 1 4.752-4.98v-8.285A3.389 3.389 0 0 1 12.637 9H35.03a3.389 3.389 0 0 1 3.385 3.385v8.285zm1.726 13.012h1.616v-3.127H5.91v3.127h34.232zm-2.093 4.576h1.388V35.09h-1.388v3.167zm-29.82 0h1.389V35.09H8.23v3.167zm1.264-16.19A3.586 3.586 0 0 0 5.91 25.65v3.495h35.848V25.65a3.586 3.586 0 0 0-3.583-3.582H9.493zm4.547-1.41h7.807v-3.944H14.04v3.945zm11.727 0h7.807v-3.944h-7.807v3.945zM12.637 10.41c-1.09 0-1.976.886-1.976 1.975v8.273h1.969v-4.65c0-.388.316-.704.705-.704h9.216c.39 0 .705.316.705.705v4.649h1.1v-4.65c0-.388.317-.704.706-.704h9.216c.39 0 .705.316.705.705v4.649h2.024v-8.273a1.978 1.978 0 0 0-1.976-1.975H12.637z"/>
</svg>
