<svg xmlns="http://www.w3.org/2000/svg" xmlns:xlink="http://www.w3.org/1999/xlink" width="48" height="48" viewBox="0 0 48 48">
    <defs>
        <path id="a" d="M0 .22h13.37v25.297H0z"/>
        <path id="c" d="M.044.11h10.062v9.96H.044z"/>
        <path id="e" d="M.222.22h13.37v25.297H.222z"/>
        <path id="g" d="M.264.11h10.062v9.96H.264z"/>
    </defs>
    <g fill="none" fill-rule="evenodd">
        <g transform="translate(9.5 18.373)">
            <mask id="b" fill="#fff">
                <use xlink:href="#a"/>
            </mask>
            <path fill="#A2A4AA" d="M11.726 2.938L9.72 12.436H3.652l-2.01-9.518a.965.965 0 0 1 .174-.822.713.713 0 0 1 .553-.281h8.634c.285 0 .469.176.553.28a.98.98 0 0 1 .17.843zM3.803 23.923h5.766V14.03H3.803v9.892zM11.003.22H2.369c-.704 0-1.366.323-1.816.886a2.517 2.517 0 0 0-.484 2.158L2.19 13.316V24.72c0 .44.361.797.806.797h7.378a.802.802 0 0 0 .805-.797V13.316L13.3 3.284a2.528 2.528 0 0 0-.48-2.178A2.32 2.32 0 0 0 11.003.22z" mask="url(#b)"/>
        </g>
        <g transform="translate(11.111 7.209)">
            <mask id="d" fill="#fff">
                <use xlink:href="#c"/>
            </mask>
            <path fill="#A2A4AA" d="M5.075 1.705c1.886 0 3.42 1.518 3.42 3.385 0 1.867-1.534 3.385-3.42 3.385s-3.42-1.518-3.42-3.385c0-1.867 1.534-3.385 3.42-3.385m0 8.365c2.774 0 5.031-2.234 5.031-4.98 0-2.746-2.257-4.98-5.031-4.98C2.3.11.044 2.344.044 5.09c0 2.746 2.257 4.98 5.03 4.98" mask="url(#d)"/>
        </g>
        <g transform="translate(24.644 18.373)">
            <mask id="f" fill="#fff">
                <use xlink:href="#e"/>
            </mask>
            <path fill="#A2A4AA" d="M11.776 23.641a.713.713 0 0 1-.553.281H2.589a.713.713 0 0 1-.553-.28.979.979 0 0 1-.17-.843l2.006-9.498H9.94l2.01 9.518c.07.291.005.599-.174.822zM4.023 11.706h5.766V1.815H4.023v9.891zm9.5 10.767L11.401 12.42V1.017c0-.44-.361-.797-.806-.797H3.217a.802.802 0 0 0-.805.797v11.404L.294 22.452a2.527 2.527 0 0 0 .48 2.18c.45.562 1.111.885 1.815.885h8.634c.704 0 1.366-.323 1.816-.886a2.517 2.517 0 0 0 .484-2.158z" mask="url(#f)"/>
        </g>
        <g transform="translate(26.256 7.209)">
            <mask id="h" fill="#fff">
                <use xlink:href="#g"/>
            </mask>
            <path fill="#A2A4AA" d="M5.295 1.705c1.886 0 3.42 1.518 3.42 3.385 0 1.867-1.534 3.385-3.42 3.385s-3.42-1.518-3.42-3.385c0-1.867 1.534-3.385 3.42-3.385m0 8.365c2.774 0 5.03-2.234 5.03-4.98 0-2.746-2.256-4.98-5.03-4.98C2.521.11.265 2.344.265 5.09c0 2.746 2.256 4.98 5.03 4.98" mask="url(#h)"/>
        </g>
    </g>
</svg>
