<svg xmlns="http://www.w3.org/2000/svg" width="48" height="48" viewBox="0 0 48 48">
    <path fill="#A2A4AA" fill-rule="evenodd" d="M40.531 11a2.57 2.57 0 0 1 2.568 2.568v19.698a2.57 2.57 0 0 1-1.863 2.467v1.497a.705.705 0 0 1-.705.705h-3.812a.705.705 0 0 1-.704-.705v-1.396h-23.92v1.396a.705.705 0 0 1-.705.705H7.579a.705.705 0 0 1-.705-.705v-1.396h-.306A2.57 2.57 0 0 1 4 33.266V13.568A2.57 2.57 0 0 1 6.568 11h33.963zm1.158 22.266V13.568a1.16 1.16 0 0 0-1.158-1.158h-7.455v22.014h7.455a1.16 1.16 0 0 0 1.158-1.158zm-4.265 3.26h2.402v-.692h-2.402v.691zm-29.141 0h2.402v-.692H8.283v.691zm-2.873-3.26a1.16 1.16 0 0 0 1.158 1.158h25.098V12.41H6.568c-.639 0-1.158.52-1.158 1.158v19.698zm24.107-.076H7.579a.705.705 0 0 1-.705-.705V14.374c0-.39.315-.705.705-.705h21.938c.389 0 .705.316.705.705v18.11a.705.705 0 0 1-.705.706zM8.283 31.78h20.529V15.079H8.283v16.7zm29-12.285a3.292 3.292 0 0 1 3.288 3.288 3.292 3.292 0 0 1-3.288 3.288 3.292 3.292 0 0 1-3.288-3.288 3.292 3.292 0 0 1 3.288-3.288zm0 5.166a1.88 1.88 0 0 0 1.88-1.878 1.881 1.881 0 0 0-1.88-1.88 1.881 1.881 0 0 0-1.879 1.88 1.88 1.88 0 0 0 1.88 1.878zm0 2.291a3.292 3.292 0 0 1 3.288 3.288 3.292 3.292 0 0 1-3.288 3.29 3.292 3.292 0 0 1-3.288-3.29 3.292 3.292 0 0 1 3.288-3.288zm0 5.167a1.881 1.881 0 0 0 1.88-1.879 1.881 1.881 0 0 0-1.88-1.878 1.881 1.881 0 0 0-1.879 1.878c0 1.036.843 1.88 1.88 1.88zm2.584-18.561c.389 0 .705.315.705.705v3.666a.705.705 0 0 1-.705.704H34.7a.705.705 0 0 1-.705-.704v-3.666c0-.39.316-.705.705-.705h5.167zm-4.462 3.666h3.757v-2.256h-3.757v2.256zm-10.781 3.122a.706.706 0 0 1 .699 1.224c-.096.055-1.647.92-3.76.92a7.414 7.414 0 0 1-3.578-.913c-3.03-1.646-5.937-.023-5.966-.007a.704.704 0 1 1-.7-1.224c.147-.083 3.626-2.024 7.339-.007 3.03 1.645 5.937.024 5.966.007zm0 4.268a.705.705 0 1 1 .699 1.224c-.096.055-1.647.92-3.76.92a7.414 7.414 0 0 1-3.578-.913c-3.03-1.646-5.937-.024-5.966-.007a.704.704 0 1 1-.7-1.224c.147-.084 3.626-2.025 7.339-.008 3.03 1.646 5.937.025 5.966.008z"/>
</svg>
