<svg xmlns="http://www.w3.org/2000/svg" width="48" height="48" viewBox="0 0 48 48">
    <g fill="#A2A4AA" fill-rule="evenodd">
        <path d="M42.319 22.595a.835.835 0 0 0-.987.64l-2.288 10.84h-5.96c-1.56 0-2.828 1.257-2.828 2.803v6.109a.83.83 0 0 0 .833.826.83.83 0 0 0 .834-.826v-6.11c0-.634.52-1.15 1.161-1.15h5.9l.917 7.361a.83.83 0 0 0 .93.719.828.828 0 0 0 .724-.921l-.99-7.95 2.399-11.363a.826.826 0 0 0-.645-.978M14.897 34.074H8.938l-2.289-10.84a.836.836 0 0 0-.986-.64.827.827 0 0 0-.645.979l2.399 11.362-.99 7.95a.828.828 0 0 0 .827.928.831.831 0 0 0 .827-.725l.917-7.361h5.9c.64 0 1.16.516 1.16 1.15v6.11a.83.83 0 0 0 .834.826.83.83 0 0 0 .833-.826v-6.11c0-1.545-1.268-2.803-2.828-2.803"/>
        <path d="M22.63 42.16h2.358V31.31H22.63v10.85zM14.49 29.659h19.004v-1.353H14.489v1.353zm-5.775-14.24c-.011-.01-.02-.046.007-.072l15.27-7.595 15.29 7.607c.006.014-.002.05-.011.058a.098.098 0 0 1-.027.003H8.714zM34.326 31.31a.83.83 0 0 0 .833-.826V27.48a.83.83 0 0 0-.833-.826h-9.502v-9.581h14.419c.807 0 1.474-.524 1.66-1.302a1.66 1.66 0 0 0-.895-1.9L24.364 6.087a.84.84 0 0 0-.747 0L7.974 13.869a1.66 1.66 0 0 0-.895 1.901 1.676 1.676 0 0 0 1.66 1.302h14.418v9.581h-9.502a.83.83 0 0 0-.833.826v3.005a.83.83 0 0 0 .833.826h7.309v11.677a.83.83 0 0 0 .833.826h4.024a.83.83 0 0 0 .833-.826V31.31h7.672z"/>
    </g>
</svg>
