<svg xmlns="http://www.w3.org/2000/svg" width="48" height="48" viewBox="0 0 48 48">
    <path fill="#A2A4AA" fill-rule="evenodd" d="M31.973 5a4.281 4.281 0 0 1 4.276 4.276v29.35a4.283 4.283 0 0 1-3.414 4.189v.439a.705.705 0 0 1-.705.705H15.776a.705.705 0 0 1-.704-.705v-.415a4.279 4.279 0 0 1-3.572-4.213V9.276A4.281 4.281 0 0 1 15.776 5h16.197zm0 36.493a2.87 2.87 0 0 0 2.866-2.867V21.09h-21.93v17.536a2.87 2.87 0 0 0 2.867 2.867h16.197zM15.776 6.41a2.87 2.87 0 0 0-2.866 2.866V19.68h21.929V9.276a2.869 2.869 0 0 0-2.866-2.866H15.776zM31.203 17.5a.927.927 0 0 1-.927-.927v-6.437a.927.927 0 1 1 1.854 0v6.438a.927.927 0 0 1-.928.927zm0 5.795c.512 0 .927.415.927.927v6.437a.927.927 0 1 1-1.855 0v-6.437c0-.512.416-.927.928-.927z"/>
</svg>
