<svg xmlns="http://www.w3.org/2000/svg" width="48" height="48" viewBox="0 0 48 48">
    <path fill="#A2A4AA" fill-rule="evenodd" d="M43.376 6c.389 0 .705.316.705.705V34.35a.705.705 0 0 1-.705.705H27.614v3.638h4.693c1.118 0 2.027.909 2.027 2.027v.224a2.029 2.029 0 0 1-2.027 2.027H15.774a2.03 2.03 0 0 1-2.028-2.027v-.224a2.03 2.03 0 0 1 2.028-2.027h4.692v-3.638H4.705A.705.705 0 0 1 4 34.35V6.705C4 6.316 4.316 6 4.705 6h38.671zM26.909 33.645h15.762v-2.962H5.41v2.962h21.499zm-5.033 5.048h4.328v-3.639h-4.328v3.639zm11.048 2.027a.618.618 0 0 0-.617-.617H15.774a.618.618 0 0 0-.618.617v.224c0 .341.277.618.618.618h16.533c.34 0 .617-.277.617-.618v-.224zM5.41 29.274h37.261V7.41H5.41v21.864zm35.55 2.15a.705.705 0 0 1 0 1.41h-2.524a.705.705 0 0 1 0-1.41h2.523z"/>
</svg>
