<svg xmlns="http://www.w3.org/2000/svg" width="48" height="48" viewBox="0 0 48 48">
    <path fill="#A2A4AA" fill-rule="evenodd" d="M35.08 5a3.406 3.406 0 0 1 3.402 3.402V37.42a3.406 3.406 0 0 1-2.697 3.328v.28a2.974 2.974 0 0 1-2.97 2.97 2.974 2.974 0 0 1-2.97-2.97v-.205H18.137v.205a2.974 2.974 0 0 1-2.97 2.97 2.973 2.973 0 0 1-2.969-2.97v-.28A3.407 3.407 0 0 1 9.5 37.42V8.402A3.406 3.406 0 0 1 12.902 5H35.08zm0 34.412a1.995 1.995 0 0 0 1.993-1.993V14.64H10.91v22.78c0 1.098.894 1.992 1.992 1.992H35.08zm-.705 1.615v-.205h-3.12v.205c0 .86.7 1.56 1.56 1.56.86 0 1.56-.7 1.56-1.56zm-17.647 0v-.205h-3.121v.205c0 .86.7 1.56 1.56 1.56.861 0 1.561-.7 1.561-1.56zM12.902 6.41a1.995 1.995 0 0 0-1.992 1.992v4.828h26.163V8.402A1.995 1.995 0 0 0 35.08 6.41H12.902zm11.09 10.97c5.237 0 9.5 4.262 9.5 9.5s-4.263 9.5-9.5 9.5c-5.239 0-9.5-4.262-9.5-9.5s4.261-9.5 9.5-9.5zm0 17.59c4.46 0 8.09-3.63 8.09-8.09 0-4.461-3.63-8.09-8.09-8.09-4.462 0-8.09 3.629-8.09 8.09 0 4.46 3.628 8.09 8.09 8.09zm5.636-12.363a.704.704 0 0 1-.072.933 4.607 4.607 0 0 0-1.42 3.34 4.61 4.61 0 0 0 1.422 3.34.705.705 0 0 1 .07.933 7.03 7.03 0 0 1-5.637 2.807c-3.904 0-7.08-3.176-7.08-7.08s3.175-7.08 7.08-7.08a7.03 7.03 0 0 1 5.637 2.807zm-1.5 8.143a5.997 5.997 0 0 1-1.4-3.87c0-1.433.492-2.785 1.4-3.87a5.616 5.616 0 0 0-4.137-1.801 5.677 5.677 0 0 0-5.67 5.67 5.677 5.677 0 0 0 5.67 5.672c1.587 0 3.066-.65 4.137-1.801zM14.545 12.257a2.32 2.32 0 0 1-2.318-2.319 2.321 2.321 0 0 1 2.318-2.319 2.321 2.321 0 0 1 2.318 2.32 2.32 2.32 0 0 1-2.318 2.318zm0-3.227a.91.91 0 1 0 0 0zm5.665 3.227a2.32 2.32 0 0 1-2.318-2.319A2.321 2.321 0 0 1 20.21 7.62a2.321 2.321 0 0 1 2.318 2.32 2.32 2.32 0 0 1-2.318 2.318zm0-3.227a.91.91 0 1 0 0 0z"/>
</svg>
