<svg xmlns="http://www.w3.org/2000/svg" xmlns:xlink="http://www.w3.org/1999/xlink" width="34" height="34" viewBox="0 0 34 34">
    <defs>
        <path id="a" d="M0 .672h23.973v20.742H0z"/>
    </defs>
    <g fill="none" fill-rule="evenodd">
        <path fill="#000" d="M23.913 12.143H10.06c-.59 0-1.067.464-1.067 1.038 0 .573.478 1.038 1.067 1.038h13.853c.59 0 1.067-.465 1.067-1.038 0-.574-.478-1.038-1.067-1.038M19.645 17.217H10.06c-.59 0-1.068.465-1.068 1.038s.478 1.037 1.068 1.037h9.584c.588 0 1.067-.464 1.067-1.037s-.479-1.038-1.067-1.038"/>
        <g transform="translate(5 6.121)">
            <mask id="b" fill="#fff">
                <use xlink:href="#a"/>
            </mask>
            <path fill="#000" d="M2.816 2.374c-.606 0-1.099.489-1.099 1.09v12.274c0 .602.493 1.09 1.1 1.09h6.459l2.71 2.33 2.694-2.33h6.477c.607 0 1.1-.488 1.1-1.09V3.464c0-.601-.493-1.09-1.1-1.09H2.817zm9.172 19.04L8.635 18.53H2.816C1.264 18.531 0 17.278 0 15.738V3.464C0 1.924 1.264.672 2.816.672h18.341c1.553 0 2.816 1.253 2.816 2.792v12.274c0 1.54-1.263 2.793-2.816 2.793h-5.833l-3.336 2.883z" mask="url(#b)"/>
        </g>
    </g>
</svg>
