<svg xmlns="http://www.w3.org/2000/svg" width="34" height="34" viewBox="0 0 34 34">
    <path fill="#000" fill-rule="evenodd" d="M27.496 13.058a1.746 1.746 0 0 1 1.417 1.193 1.742 1.742 0 0 1-.446 1.798l-4.21 4.104.995 5.799a1.76 1.76 0 0 1-.697 1.713 1.785 1.785 0 0 1-1.85.133L17.5 25.062l-5.204 2.736A1.756 1.756 0 0 1 9.75 25.95l.992-5.796-4.212-4.106a1.742 1.742 0 0 1-.444-1.792 1.75 1.75 0 0 1 1.418-1.197l5.82-.845 2.601-5.274c.287-.58.89-.939 1.575-.939.686 0 1.29.36 1.575.941l2.601 5.272 5.82.845zm-5.2 6.46l4.8-4.678-6.632-.964-2.965-6.003-2.96 6.003-6.635.964 4.8 4.679-1.131 6.6 5.927-3.116 5.929 3.117-1.133-6.601z"/>
</svg>
