<svg height="48" viewBox="0 0 48 48" width="48" xmlns="http://www.w3.org/2000/svg"><path d="m23.0000118 37v-20h-9.9060278c-.6041907 0-1.093984-.4477153-1.093984-1s.4897933-1 1.093984-1h21.812032c.6041907 0 1.093984.4477153 1.093984 1s-.4897933 1-1.093984 1h-9.9060226v20h.9816399c.3638274 0 .7000177.1905989.8819314.5s.1819137.6905989 0 1-.518104.5-.8819314.5h-3.9632666c-.5624284 0-1.0183667-.4477153-1.0183667-1s.4559383-1 1.0183667-1zm19.0004775-17.4386344c-1.854679-1.0787078-3.0072991-2.9987429-3.000459-5.0884821.0070204-2.2918841 1.393146-4.3814933 3.576098-5.39103211.1284203-.05678192.2677177-.08416988.4068946-.08169787.1816475-.00328545.3639473.0461625.5259615.14834386.3139345.1979965.501911.56258559.4905263.95139832v9.000578c.0006501.0187802.0006547.0376445 0 .0565668v18.7618045c.0021702.5923926-.4446185 1.0754414-.999998 1.081155-.5549979-.0062811-1.0011976-.4891638-.9990234-1.081155v-10.8289278c-.02474.0016586-.0497104.0025016-.074883.0025016h-8.7923814v10.8563177c.0023001.5775799-.4760692 1.0479228-1.0692034 1.0512635-.5911023-.0061075-1.0663287-.4756395-1.0640131-1.0512635v-11.9075813c-.0004973-.1656823.039691-.327394.1152156-.4724636-.1343618-.2235478-.15737-.5017178-.0363141-.7534306 1.066286-2.2469679 3.410008-3.7281215 6.0371264-3.815261 1.9105743.0092902 3.6857487.8080579 4.884453 2.1327844zm0-2.2295908v-5.7064778c-.7509947.7793039-1.1826078 1.810119-1.1694992 2.9012902.0127095 1.0579554.4420076 2.0502652 1.1694992 2.8051876zm-.7806558 7.6682252c-.8016288-1.4230982-2.3799313-2.32494-4.1113127-2.3333333-1.7243756.0827204-3.2742917.9679237-4.1462494 2.3333333zm-35.21984577-5.441344v3.5725141c1.19750696-1.323761 2.97027045-2.1218836 4.87819077-2.1311701 2.6283587.0844093 4.9746741 1.5657632 6.0429891 3.815261.1209558.2517521.0979441.5299697-.0363412.7535353.0754894.1450427.1156582.3067165.115161.4723589v11.9075813c.0013799.2774729-.1104936.5441147-.3110087.7412656-.2005152.1971509-.4732465.3086607-.7581943.3099979-.5913421-.005557-1.0668972-.4754139-1.0640128-1.0512635v-10.8563177h-8.79237827c-.02501067 0-.04982174-.0008322-.0744056-.0024697v10.8276571c.00271083.5929019-.4442286 1.0766723-.99998773 1.0823938-.55575913-.0057215-1.00269856-.4894919-.99998773-1.0823938v-18.7843416c-.00001637-.0029872-.00001635-.0059727 0-.0089564v-9.0575259c0-.58916759.44770975-1.0667823.99998773-1.0667823.00581952 0 .01162743.00005303.01742333.00015867.13949647-.00252003.27911747.0249849.40776556.08203824 2.21056413 1.01452809 3.60242595 3.13913689 3.57439551 5.45613939-.02495602 2.0628711-1.17143274 3.949095-2.99959667 5.0203197zm0-2.2281666c.72659068-.7548473 1.15527355-1.7465434 1.16797618-2.8037449.0131018-1.0904237-.41789239-2.1206217-1.16797618-2.8998681zm9.03901497 7.6695106c-.8742161-1.3674576-2.4269917-2.2528024-4.153316-2.3333333-1.72976075.0081589-3.30663822.9100699-4.10730381 2.3333333z" fill-rule="evenodd"/></svg>