<svg height="48" viewBox="0 0 48 48" width="48" xmlns="http://www.w3.org/2000/svg"><path d="m29.1196612 13.7506392c-1.4513203-.2575896-2.963356-.4031668-4.5267737-.4324912v4.6314172c.0022545.1547067-.0591467.3038515-.1704946.4141354s-.2633701.1725229-.4221249.1728211c-.1587548-.0002982-.310777-.0625372-.4221249-.1728211s-.1727491-.2594287-.1704947-.4141354v-4.6314174c-1.5632229.029319-3.0753153.1748527-4.5268032.4323628l1.0048123 4.3751416c.0678792.3106832-.1301579.6176206-.4468737.6926087-.0429119.0134783-.0874627.0213726-.1324963.0234782-.2776127-.0047449-.5159193-.1938443-.5769609-.4578261l-1.0097089-4.4006457c-1.5175679.339892-2.9628047.8067102-4.3241001 1.3952605l1.6299369 4.1675592c.1153536.2984635-.0349439.6320822-.3384677.7513043-.0665594.0322111-.1401026.0483178-.214403.0469565-.2466315-.0006175-.4669771-.150333-.5528707-.3756521l-1.6000037-4.0910238c-1.3446339.667882-2.59831505 1.4614967-3.74864392 2.3752972l2.15789732 3.5705092c.1664122.2797257.0759334.6376341-.204767.81-.0933588.0497517-.1972244.0778703-.3035368.0821739-.2114582-.0020141-.40572231-.1139108-.50950826-.2934783l-2.05391467-3.398457c-.73800177.6606146-1.42737619 1.3753067-2.06430938 2.1423701l8.89892931 14.5213043h19.0156195l8.8989293-14.5213043c-.6371981-.7665055-1.3265135-1.4807157-2.0641989-2.1409283l-2.0540252 3.3970152c-.1032025.1795583-.2971389.2915309-.5083037.2934783h-.0012045c-.1059291-.0043147-.2094007-.0324382-.3023324-.0821739-.2812482-.1719803-.3718481-.5303678-.2047669-.81l2.1569346-3.5689162c-1.1504469-.9139549-2.4038917-1.7077233-3.748124-2.3757581l-1.599561 4.0898917c-.0858935.2253191-.3062391.3750346-.5528706.3756521-.0739241.0014514-.1470987-.0146651-.2131985-.0469565-.3039971-.1187636-.4548901-.4525165-.3396722-.7513043l1.6295843-4.1666579c-1.3609327-.5887236-2.8057069-1.0556975-4.3228868-1.3957263l-1.0105697 4.4002102c-.0610415.2639818-.2993481.4530812-.5769609.4578261-.0450449-.0020083-.0896088-.009905-.1324962-.0234782-.3167158-.0749881-.514753-.3819255-.4468737-.6926087zm5.0466819 24.2493608h-20.3333548c-.4094112-.0016982-.7884926-.2106539-1.0009488-.5517391l-9.66138498-15.7656522c-.25004991-.4076544-.22342531-.9219859.06745263-1.3030435 4.64098194-6.0456522 12.01379545-9.3795652 20.76216085-9.3795652s16.1211789 3.333913 20.7609563 9.3795652c.2912571.380815.3183576.8951553.0686572 1.3030435l-9.663794 15.7656522c-.2117247.3412396-.5905756.5503199-.9997444.5517391zm-8.5484165-6.1278261-1.6176586-11.0465217-1.6188632 11.0465217c-.0397929.1375549-.0604542.2796944-.06143.4226087-.0537502.6181627.2542408 1.2131461.7963214 1.5383503.5420805.3252042 1.2258631.3252042 1.7679436 0s.8500715-.9201876.7963214-1.5383503c-.001942-.143176-.0242368-.2853988-.0662481-.4226087zm-1.6176586 2.6647826c-1.262536-.0084019-2.2795873-1.0116986-2.2729128-2.2421739.0012357-.194495.0291878-.3879532.0831113-.5752174l1.604409-10.9760869c.035641-.2890599.2872667-.5065887.5859947-.5065887.2987281 0 .5503538.2175288.5859948.5065887l1.6176586 11.0347826c.0466704.1683707.0697653.3421188.0686572.5165217.0066745 1.2304753-1.0103768 2.233772-2.2729128 2.2421739zm0-9.6260869-1.0334707 7.0434782c-.0321499.1109581-.0507478.225227-.0554075.3404348 0 .5854459.4869681 1.0600435 1.0876737 1.0600435s1.0876737-.4745976 1.0876737-1.0600435c-.0022717-.0952322-.0164285-.1898409-.0421579-.2817391z" fill-rule="evenodd"/></svg>