<svg height="48" viewBox="0 0 48 48" width="48" xmlns="http://www.w3.org/2000/svg"><path d="m24.2416168 42.01c-7.4644948-.1695753-13.385054-6.3459027-13.2389706-13.8108941 0-10.4746735 5.6620429-22.1991059 13.2389706-22.1991059 7.5769276 0 13.2389706 11.7244324 13.2389706 22.1991059.1460833 7.4649914-5.7744759 13.6413188-13.2389706 13.8108941zm0-33.56343824c-5.0371636 0-10.8919659 8.63180884-10.8919659 19.75254414-.1673835 4.0000227 1.8712282 7.7699557 5.3101397 9.8198548 3.4389116 2.0498992 7.7247408 2.0498992 11.1636523 0 3.4389116-2.0498991 5.4775233-5.8198321 5.3101398-9.8198548 0-11.1207353-5.8548024-19.75254414-10.8919659-19.75254414zm-8.6190994 19.73136174c-.3355308-.0109443-.6001316-.2892232-.594165-.6248794v-2.0970529c0-.3281483.2660167-.594165.594165-.594165.3281482 0 .594165.2660167.594165.594165v2.0970529c.0060374.3336706-.2554278.6111247-.5888694.6248794zm3.3542256 0c-.3355308-.0109443-.6001316-.2892232-.594165-.6248794v-2.0970529c0-.3281483.2660167-.594165.594165-.594165.3281482 0 .594165.2660167.594165.594165v2.0970529c.0059665.3356562-.2586343.6139351-.594165.6248794zm3.3521073 0c-.3355308-.0109443-.6001315-.2892232-.594165-.6248794v-2.0970529c0-.3281483.2660167-.594165.594165-.594165s.594165.2660167.594165.594165v2.0970529c.0059665.3356562-.2586342.6139351-.594165.6248794zm3.3521074 0c-.3355308-.0109443-.6001316-.2892232-.594165-.6248794v-2.0970529c0-.3281483.2660167-.594165.594165-.594165.3281482 0 .594165.2660167.594165.594165v2.0970529c.0059665.3356562-.2586343.6139351-.594165.6248794zm3.3531664 0c-.3355307-.0109443-.6001315-.2892232-.594165-.6248794v-2.0970529c0-.3281483.2660168-.594165.594165-.594165.3281483 0 .594165.2660167.594165.594165v2.0970529c.0059666.3356562-.2586342.6139351-.594165.6248794zm3.3531665 0c-.3355308-.0109443-.6001315-.2892232-.594165-.6248794v-2.0970529c0-.3281483.2660167-.594165.594165-.594165s.594165.2660167.594165.594165v2.0970529c.0059665.3356562-.2586342.6139351-.594165.6248794zm-8.9802585 4.2152883c-.1595985-.0010103-.3121555-.0658471-.4236471-.18005l-.6735988-.7096089-.6725397.7096089c-.1085806.1165055-.2606816.1826669-.4199402.1826669-.1592585 0-.3113595-.0661614-.4199401-.1826669-.232685-.2468296-.232685-.6322381 0-.8790677l1.0930094-1.143847c.1109529-.1117641.2619249-.1746211.4194106-.1746211s.3084577.062857.4194106.1746211l1.0940685 1.143847c.2321579.2470387.2321579.632029 0 .8790677-.1095489.1125913-.2591655.1773109-.4162332.18005z" fill-rule="evenodd"/></svg>