<svg height="48" viewBox="0 0 48 48" width="48" xmlns="http://www.w3.org/2000/svg"><path d="m33.2798988 11.0313205c-.2324005.158667-2.2661384 1.6520037-2.2661384 3.6586749s2.0337379 3.5000079 2.2661384 3.658675c.167351.1195358.3674194.1847047.573068.1866671.3021488.0012709.5881214-.1363813.7756017-.3733342.1524837-.1922435.2180901-.4392709.1810851-.6818394s-.1732833-.4587974-.3761522-.5968302c-.8976793-.3580136-1.4865887-1.2269006-1.4865887-2.1933383s.5889094-1.8353247 1.4865887-2.1933382c.2324005-.1586671 2.2661385-1.6520038 2.2661385-3.65867498 0-2.0066712-2.033738-3.5000079-2.2661385-3.65867493-.4296743-.29805568-1.0161043-.2168889-1.3486697.18666709-.1524837.19224346-.21809.43927091-.1810851.68183937.037005.24256847.1732833.45879746.3761522.59683019.8976793.35801358 1.4865887 1.22690059 1.4865887 2.19333828 0 .9664377-.5889094 1.83532468-1.4865887 2.19333828zm-5 0c-.2324005.158667-2.2661384 1.6520037-2.2661384 3.6586749s2.0337379 3.5000079 2.2661384 3.658675c.167351.1195358.3674194.1847047.573068.1866671.3021488.0012709.5881214-.1363813.7756017-.3733342.1524837-.1922435.2180901-.4392709.1810851-.6818394s-.1732833-.4587974-.3761522-.5968302c-.8976793-.3580136-1.4865887-1.2269006-1.4865887-2.1933383s.5889094-1.8353247 1.4865887-2.1933382c.2324005-.1586671 2.2661385-1.6520038 2.2661385-3.65867498 0-2.0066712-2.033738-3.5000079-2.2661385-3.65867493-.4296743-.29805568-1.0161043-.2168889-1.3486697.18666709-.1524837.19224346-.21809.43927091-.1810851.68183937.037005.24256847.1732833.45879746.3761522.59683019.8976793.35801358 1.4865887 1.22690059 1.4865887 2.19333828 0 .9664377-.5889094 1.83532468-1.4865887 2.19333828zm-7.2661384 3.6586749c0 2.0066712 2.0337379 3.5000079 2.2661384 3.658675.167351.1195358.3674194.1847047.573068.1866671.3021488.0012709.5881214-.1363813.7756017-.3733342.1524837-.1922435.2180901-.4392709.1810851-.6818394s-.1732833-.4587974-.3761522-.5968302c-.8976793-.3580136-1.4865887-1.2269006-1.4865887-2.1933383s.5889094-1.8353247 1.4865887-2.1933382c.2324005-.1586671 2.2661385-1.6520038 2.2661385-3.65867498 0-2.0066712-2.033738-3.5000079-2.2661385-3.65867493-.4296743-.29805568-1.0161043-.2168889-1.3486697.18666709-.1524837.19224346-.21809.43927091-.1810851.68183937.037005.24256847.1732833.45879746.3761522.59683019.8976793.35801358 1.4865887 1.22690059 1.4865887 2.19333828 0 .9664377-.5889094 1.83532468-1.4865887 2.19333828-.2324005.158667-2.2661384 1.6520037-2.2661384 3.6586749zm-2.7338616-3.6586749c-.2324005.158667-2.2661384 1.6520037-2.2661384 3.6586749s2.0337379 3.5000079 2.2661384 3.658675c.167351.1195358.3674194.1847047.573068.1866671.3021488.0012709.5881214-.1363813.7756017-.3733342.1524837-.1922435.2180901-.4392709.1810851-.6818394s-.1732833-.4587974-.3761522-.5968302c-.8976793-.3580136-1.4865887-1.2269006-1.4865887-2.1933383s.5889094-1.8353247 1.4865887-2.1933382c.2324005-.1586671 2.2661385-1.6520038 2.2661385-3.65867498 0-2.0066712-2.033738-3.5000079-2.2661385-3.65867493-.4296743-.29805568-1.0161043-.2168889-1.3486697.18666709-.1524837.19224346-.21809.43927091-.1810851.68183937.037005.24256847.1732833.45879746.3761522.59683019.8976793.35801358 1.4865887 1.22690059 1.4865887 2.19333828 0 .9664377-.5889094 1.83532468-1.4865887 2.19333828zm-5.2957453 7.3173499c.167954.1197362.368677.184906.5749347.1866671.3024129.0012789.5886735-.1363463.776535-.3733342.152486-.1927522.2175305-.4404354.1794263-.6832387s-.1758931-.458655-.3800934-.5954309c-.8968878-.3587269-1.4850057-1.227371-1.4850057-2.1933383 0-.9659672.5881179-1.8346114 1.4850057-2.1933382.2324005-.1586671 2.2661385-1.6520038 2.2661385-3.65867498 0-2.0066712-2.033738-3.5000079-2.2661385-3.65867493-.4296743-.29805568-1.0161043-.2168889-1.3486697.18666709-.1524837.19224346-.21809.43927091-.1810851.68183937.037005.24256847.1732833.45879746.3761522.59683019.8976793.35801358 1.4865887 1.22690059 1.4865887 2.19333828 0 .9664377-.5889094 1.83532468-1.4865887 2.19333828-.2324005.158667-2.2670718 1.6520037-2.2670718 3.6586749s2.0374713 3.5000079 2.2698718 3.658675zm27.8040628 5.768013c.3366372.0152116.6544215-.15572.8272853-.4449847s.1728638-.6501033 0-.9393681c-.1728638-.2892647-.4906481-.4601963-.8272853-.4449847h-33.70740945c-.33663715-.0152116-.65442152.15572-.82728529.4449847-.17286378.2892648-.17286378.6501034 0 .9393681.17286377.2892647.49064814.4601963.82728529.4449847h3.31614085v13.9533648c.081398 2.876289 2.4723195 5.1458079 5.3489454 5.0773449h16.5900375c2.8766258.068463 5.2675474-2.2010559 5.3489454-5.0773449v-13.9533648zm-5.0400114 13.9533648c-.0533995 1.8356615-1.5801075 3.2831141-3.4160077 3.238674h-16.5863041c-1.8359002.0444401-3.3626082-1.4030125-3.4160077-3.238674v-13.9533648h18.5817753v11.218692c.0317503.5107269.4552227.9086908.9669355.9086908s.9351852-.3979639.9669355-.9086908v-11.218692h2.9064066v13.9533648zm-26.81566053-12.8986958h-4.97561124c-.33663715-.0152115-.65442152.15572-.8272853.4449848-.17286377.2892647-.17286377.6501033 0 .939368.17286378.2892647.49064815.4601963.8272853.4449847h4.97654457c.33660821.0157179.65464487-.1547294.82794578-.4437258s.1738532-.6498278.00143779-.9393534c-.17241542-.2895256-.48992882-.4609456-.82658356-.4462583zm35.09341263 0h-4.9756113c-.3407262-.0217793-.6653158.1476362-.8422789.439617s-.1769631.6581228 0 .9501036.5015527.4613962.8422789.4396169h4.9756113c.3407147.0219524.6653899-.1472976.8425015-.4391878.1771117-.2918902.1772985-.6580316.0004848-.9501024s-.5013161-.461652-.842053-.4400473z" fill-rule="evenodd"/></svg>