<svg height="48" viewBox="0 0 48 48" width="48" xmlns="http://www.w3.org/2000/svg"><path d="m24.5005522 38c-7.7197965 0-14.0005522-6.2809668-14.0005522-14s6.2807557-14 14.0005522-14 13.9994478 6.2809668 13.9994478 14-6.2796513 14-13.9994478 14zm.5220577-25.988497c-4.8960694-.2139151-9.4301269 2.5715095-11.4527494 7.0358107-2.0226225 4.4643013-1.1272317 9.7100853 2.2617021 13.250527s8.5901822 4.6638573 13.1380326 2.8376785c4.5478505-1.8261788 7.5281145-6.2348617 7.5279631-11.1360611.1306842-6.4752453-5.0007721-11.8361119-11.4749484-11.9879551zm-16.74713671 4.3480978c-.00341517-.0376424-.00480952-.0758511-.00407535-.1145143v-5.1832982c-.01678589-.3735568.17294518-.7261504.49394657-.9179435.32100138-.19179306.72140135-.19179306 1.04240273 0 .32100136.1917931.51073246.5443867.49394656.9179435v5.1832982c.0003453.0181818.0002198.0362632-.0003652.0542324.0052005.0498048.0067516.1003541.0044627.1512931.0331653 1.7074527-1.08374766 3.1703097-2.63980075 3.647554-.00006179.0132937-.00039987.0266218-.00101802.0399775v16.837485c.01085427.5549664-.44354168 1.013491-1.01514793 1.0243715-.57160626-.0108805-1.02600221-.4694051-1.01514794-1.0243715v-16.837485c-.00065389-.0141282-.0009944-.0282255-.00102597-.0422838-1.55234843-.4798869-2.66533814-1.9408622-2.6326222-3.6452477-.00182927-.0407088-.00120597-.0811687.0017725-.1211986-.0017086-.0278356-.00231359-.0559594-.0017725-.0843269v-5.1832982c-.01678589-.3735568.17294518-.7261504.49394656-.9179435.32100139-.19179306.72140136-.19179306 1.04240274 0 .32100139.1917931.51073246.5443867.49394657.9179435v5.1832982c.00053102.0280679-.00007978.0560396-.00180789.0838528.0030089.0401846.00364437.0808032.00180789.1216727-.02596339.5963578.27740044 1.1588698.78996788 1.4647968.51256745.3059271 1.15166784.3059271 1.66423528 0 .51256745-.305927.81593127-.868439.78996789-1.4647968-.00137063-.0305022-.00136435-.0608647-.00002212-.0910112zm34.68919431 10.9602184c-2.3073033-2.0627718-3.6269415-5.027624-3.5986021-8.1443903-.028499-3.4642267 1.4817908-6.7624745 4.1230782-9.0041881.1716039-.1364934.392333-.19528626.6090958-.1622372.2167629.033049.4099424.154949.5330736.3363796.0528645.0740181.0925483.1536142.1194503.2359326.1632774.1946637.2534215.4477942.2452245.7123608v25.8435767c.0108542.5859863-.4435417 1.0701401-1.015148 1.0816287-.2746833-.0052422-.5360791-.1221567-.7266587-.3250124s-.2947243-.475028-.2895136-.7566163zm0-2.4210848v-11.7605932c-1.2878191 1.7264401-1.9909977 3.8437358-1.9667851 6.0372877-.0211737 2.0980308.6866066 4.1143643 1.9667851 5.7233055zm-26.4646675-.8987344c0-4.2853244 3.5239341-7.8111317 7.9957497-8 .4523929.0212029.8356546.1354148.8356546.5690388 0 .4336239-.3780296.5488589-.8304226.5700618-2.7218069-.112813-5.2469962 1.8554755-6.3706886 4.2314841s-.6252875 5.1674378 1.2589796 7.0511996 4.9677686 2.9978686 7.4958923 2.0259146 4.3738574-3.8346317 4.3739175-6.4428357c-.0288322-.2941179-.0128063-.578501.2494781-.7341129.2622845-.155612.4112873-.155612.6735718 0 .2622844.1556119.343132.439995.3142998.7341129.0885263 4.3198451-3.4888105 7.8947023-8.0006825 7.9951368-4.4718156-.1888683-7.9957497-3.7146756-7.9957497-8zm-9.84997636-6.9450113c-.48569892-.0112252-.8716673-.4116674-.86501243-.8974504v-5.2116999c-.03068545-.3269639.12642533-.6431057.40556943-.8160958.2791441-.17299012.63217305-.17299012.91131714 0 .2791441.1729901.43625488.4891319.40556943.8160958v5.2116999c.00672861.4829148-.37472376.8821651-.85744357.8974504z" fill-rule="evenodd"/></svg>