<svg height="48" viewBox="0 0 48 48" width="48" xmlns="http://www.w3.org/2000/svg"><path d="m16.0067793 10.6915781c1.5436532-2.97153142 4.686603-4.82839229 8.0972665-4.68368978 3.2658914.13856034 6.1317495 2.08498363 7.4986164 4.96436228 1.1010912-.5204064 2.3059645-.7920516 3.528654-.7924095 4.3891172-.0853796 8.0275665 3.3812533 8.1544395 7.7693671.1154041 3.9914429-2.7137903 7.3896129-6.5276154 8.0980648v10.4281633c-.0067639.6763537-.5569894 1.2210769-1.2333769 1.2210431h-22.3783902c-.6763876.0000338-1.226613-.5446894-1.2333769-1.2210431v-10.3599002c-2.40993685-.3317833-4.56564295-1.7494483-5.81687548-3.8876553-1.46149443-2.4975196-1.46149443-5.589328 0-8.0868475s4.15698608-4.0119845 7.05025238-3.9611922c.9796446.0002868 1.9478522.1747279 2.8604061.511737zm1.6494361 2.199964c-.0026392.0047019-.0053114.0093893-.0080166.0140619-.3479016.5808838-1.0957881.7779842-1.6847928.4440156-.8598122-.4846636-1.8300295-.7395368-2.8170328-.7400261-3.0789121 0-5.57486356 2.4959514-5.57486356 5.5748635 0 3.0789122 2.49595146 5.5748636 5.57486356 5.5748636.9873782-.0006106 1.9579636-.2554689 2.8182662-.7400262.5886338-.3338494 1.3361315-.1367072 1.6835594.4440157.1622002.2805013.2056266.614175.1206257.9268485s-.291385.5784358-.573275.7382103c-.8753239.4918544-1.8297546.818564-2.8157994.9676881v9.1706699h4.5499273v-5.6611999c0-.5473243.443694-.9910183.9910183-.9910183s.9910183.443694.9910183.9910183v5.6611999h5.6994346v-5.6611999c0-.5473243.4436941-.9910183.9910184-.9910183s.9910183.443694.9910183.9910183v5.6611999h5.6982012v-10.0969493c-.0097373-.0565085-.0155901-.1143936-.0172668-.17338-.0154296-.5427899.3274691-1.0125585.8142609-1.1823226.1356619-.0513291.2827416-.079422.4363828-.079422.0329649 0 .0656277.0012933.0979405.0038318 2.979634-.1950086 5.2891395-2.7159004 5.2019572-5.7206957-.0888165-3.0611162-2.6317056-5.4766456-5.6933449-5.4081956-.9870034.0004893-1.9572207.2553625-2.8170328.7400261-.14223.0806672-.293735.130333-.4466302.1510771-.1577572.1804673-.3701847.3163863-.6202408.379275-.1013944.024376-.2052945.0367944-.3095776.0370013-.5583105.0007767-1.0475152-.3735888-1.1926755-.9126989-.720254-2.6082643-3.0406919-4.45419253-5.7441183-4.56949522-2.7034263-.11530269-5.1726113 1.52634535-6.1123337 4.06381072-.0541023.1487616-.1338681.2808125-.2324919.3929525zm17.868548 30.1084579h-22.3783902c-.4340337.0000003-.8350975-.2315537-1.0521144-.6074379-.2170169-.3758841-.2170169-.8389926 0-1.2148767s.6180807-.6074382 1.0521144-.6074379h22.3783902c.4340335 0 .8350969.2315541 1.0521137.6074382.2170167.375884.2170167.8389922 0 1.2148762-.2170168.375884-.6180802.6074381-1.0521137.6074381z" fill-rule="evenodd"/></svg>