<svg height="48" viewBox="0 0 48 48" width="48" xmlns="http://www.w3.org/2000/svg"><path d="m9.18731706 14.3746341h30.58236584c1.2080219 0 2.1873171-.9792952 2.1873171-2.187317 0-1.2080219-.9792952-2.1873171-2.1873171-2.1873171h-30.58236584c-1.20802185 0-2.18731706.9792952-2.18731706 2.1873171 0 1.2080218.97929521 2.187317 2.18731706 2.187317zm30.58236584 7.3133197h-30.58236584c-1.20802185 0-2.18731706.9792952-2.18731706 2.187317 0 1.2080219.97929521 2.1873171 2.18731706 2.1873171h30.58236584c1.2080219 0 2.1873171-.9792952 2.1873171-2.1873171 0-1.2080218-.9792952-2.187317-2.1873171-2.187317zm-8.9095601 12.3725339h-21.67280574c-1.20802185 0-2.18731706.9792952-2.18731706 2.187317 0 1.2080219.97929521 2.1873171 2.18731706 2.1873171h21.67280574c.7814531 0 1.5035455-.4169003 1.8942721-1.0936585.3907266-.6767583.3907266-1.5105588 0-2.1873171-.3907266-.6767582-1.112819-1.0936585-1.8942721-1.0936585z" fill-rule="evenodd"/></svg>