<svg height="48" viewBox="0 0 48 48" width="48" xmlns="http://www.w3.org/2000/svg"><path d="m43.3410161 39h-39.24316046c-.60632893 0-1.09785564-.4915267-1.09785564-1.0978556 0-.606329.49152671-1.0978557 1.09785564-1.0978557h39.24316046c.606329 0 1.0978557.4915267 1.0978557 1.0978557 0 .6063289-.4915267 1.0978556-1.0978557 1.0978556zm-21.0385785-22.8500751c-.8524646-.2804334-1.5627819-.9179777-1.9226863-1.7750887-.494319-1.1772188-.2300666-2.5363365.6693376-3.4425746s2.2564827-1.18077062 3.4374094-.6953767c1.1809268.485394 1.9526722 1.6349327 1.954791 2.911722.0031157 1.3405838-.8314195 2.4883138-2.0113496 2.9463728 2.995109.0957486 5.9720689.9222627 8.6538474 2.4795422 5.7149374 3.3186017 9.2120542 9.4463532 9.1624805 16.0547698-.0005597.6040783-.4886081 1.0944398-1.092677 1.0978556-.604069-.0034158-1.0921174-.4937773-1.0926771-1.0978556.0465527-5.8256508-3.0346985-11.2288044-8.0722444-14.1551512s-11.2575281-2.9263468-16.2950739 0c-5.0375459 2.9263468-8.11879712 8.3295004-8.07224439 14.1551512 0 .6034689-.48920819 1.0926771-1.09267708 1.0926771-.60346888 0-1.09267707-.4892082-1.09267707-1.0926771-.04957362-6.6084166 3.4475431-12.7361681 9.16248054-16.0547698 2.3979934-1.3924886 5.0320015-2.2006876 7.7039604-2.424597zm13.3080177 14.5436579c-.3862176.000933-.7272729-.2517005-.8389274-.6214277-1.4584996-4.813232-5.9005355-8.1006669-10.9298779-8.0889175-.4879475-.0051172-.8804845-.4027402-.8793202-.8907131-.0002749-.2333896.0922461-.4573143.2571804-.6224429.1649344-.1651286.38875-.2579132.6221398-.257913 5.8032786-.0081562 10.9261569 3.7878154 12.6077327 9.3421301.07037.2223528.0487437.4636279-.0600472.669922-.108791.2062941-.2956807.3604161-.5189163.4279336-.0835758.0288632-.1715564.042884-.2599639.0414285zm-12.3042688-18.4978318c-.3856745-.0012576-.7340728.2300992-.8825363.5860556s-.0677099.7663053.2045589 1.0394648c.2722687.2731595.6823516.3552529 1.0387911.2079528.3564394-.1473.5889329-.4949408.5889349-.8806173.0017212-.5237277-.4208474-.950003-.9445701-.9528559z" fill-rule="evenodd"/></svg>