<svg height="34" viewBox="0 0 48 34" width="48" xmlns="http://www.w3.org/2000/svg"><g fill-rule="evenodd"><path d="m39.323 12.419h-12.436c-.5686528-.0175302-1.0205539-.4835771-1.0205539-1.0525s.4519011-1.0349698 1.0205539-1.0525h12.436c.5812797 0 1.0525.4712203 1.0525 1.0525s-.4712203 1.0525-1.0525 1.0525m0 5.455h-12.436c-.5686528-.0175302-1.0205539-.4835771-1.0205539-1.0525s.4519011-1.0349698 1.0205539-1.0525h12.436c.5812797 0 1.0525.4712203 1.0525 1.0525s-.4712203 1.0525-1.0525 1.0525m0 5.456h-12.436c-.5815558 0-1.053-.4714442-1.053-1.053s.4714442-1.053 1.053-1.053h12.436c.5812797 0 1.0525.4712203 1.0525 1.0525s-.4712203 1.0525-1.0525 1.0525"/><path d="m14.497 10.947c-1.441 0-2.614 1.198-2.614 2.67 0 1.473 1.173 2.67 2.614 2.67 1.44 0 2.614-1.197 2.614-2.67 0-1.472-1.173-2.67-2.614-2.67zm5.375 11.749v-.747c0-.635-1.73-3.21-5.375-3.21-3.646 0-5.375 2.575-5.375 3.21v.747zm-11.792 2.11c-.57840693-.0038539-1.0443244-.4755898-1.041-1.054v-1.803c0-1.391 1.498-3.717 4.325-4.771-.9985075-.9141111-1.56618192-2.2062602-1.564-3.56 0-2.637 2.107-4.782 4.697-4.782s4.697 2.145 4.697 4.782c.0021819 1.3537398-.5654925 2.6458889-1.564 3.56 2.826 1.054 4.325 3.38 4.325 4.77v1.804c.0027727.5787377-.4632724 1.0505972-1.042 1.055h-12.833z"/><path d="m7.323 3c-2.1104707.00220472-3.82079528 1.7125293-3.823 3.823v19.996c.00220367 2.1106331 1.71236755 3.8212443 3.823 3.824h33.543c2.1106324-.0027557 3.8207963-1.7133669 3.823-3.824v-19.996c-.0022047-2.1104707-1.7125293-3.82079528-3.823-3.823zm33.543 30.643h-33.543c-3.76680124-.0044094-6.81914259-3.0571982-6.823-6.824v-19.996c.00440839-3.76641132 3.05658868-6.81859161 6.823-6.823h33.543c3.7668018.00385741 6.8195906 3.05619876 6.824 6.823v19.996c-.0038584 3.7671918-3.0568082 6.8201416-6.824 6.824z"/></g></svg>